<svg xmlns="http://www.w3.org/2000/svg" xmlns:xlink="http://www.w3.org/1999/xlink" width="176" zoomAndPan="magnify" viewBox="0 0 132 30.000001" height="40" preserveAspectRatio="xMidYMid meet" version="1.0"><defs><g/><clipPath id="c7a3f06a15"><path d="M 11.429688 7.722656 L 24.988281 7.722656 L 24.988281 17 L 11.429688 17 Z M 11.429688 7.722656 " clip-rule="nonzero"/></clipPath><clipPath id="c9fe34d931"><path d="M 18.570312 16.433594 L 15.84375 16.433594 C 13.449219 16.433594 11.496094 14.480469 11.496094 12.085938 C 11.496094 9.691406 13.449219 7.738281 15.84375 7.738281 L 22.410156 7.738281 C 23.46875 7.738281 24.335938 8.605469 24.335938 9.664062 C 24.335938 10.722656 23.46875 11.589844 22.410156 11.589844 L 15.84375 11.589844 C 15.570312 11.589844 15.347656 11.808594 15.347656 12.085938 C 15.347656 12.359375 15.570312 12.582031 15.84375 12.582031 L 18.570312 12.582031 C 19.628906 12.582031 20.496094 13.445312 20.496094 14.507812 C 20.496094 15.566406 19.628906 16.433594 18.570312 16.433594 Z M 18.570312 16.433594 " clip-rule="nonzero"/></clipPath><linearGradient x1="57.070986" gradientTransform="matrix(0.0672061, 0, 0, 0.0672061, 11.431325, 7.725539)" y1="-0.676327" x2="59.08323" gradientUnits="userSpaceOnUse" y2="131.581433" id="d178fd4fa8"><stop stop-opacity="1" stop-color="rgb(99.943542%, 99.943542%, 99.943542%)" offset="0"/><stop stop-opacity="1" stop-color="rgb(99.74823%, 99.74823%, 99.74823%)" offset="0.0219718"/><stop stop-opacity="1" stop-color="rgb(99.552917%, 99.552917%, 99.552917%)" offset="0.25"/><stop stop-opacity="1" stop-color="rgb(99.453735%, 99.453735%, 99.453735%)" offset="0.375"/><stop stop-opacity="1" stop-color="rgb(99.258423%, 99.258423%, 99.258423%)" offset="0.5"/><stop stop-opacity="1" stop-color="rgb(99.06311%, 99.06311%, 99.06311%)" offset="0.625"/><stop stop-opacity="1" stop-color="rgb(98.866272%, 98.866272%, 98.866272%)" offset="0.75"/><stop stop-opacity="1" stop-color="rgb(98.583984%, 98.583984%, 98.583984%)" offset="0.978028"/><stop stop-opacity="1" stop-color="rgb(98.399353%, 98.399353%, 98.399353%)" offset="1"/></linearGradient><clipPath id="11f03758ce"><path d="M 11.429688 12 L 24.988281 12 L 24.988281 21.28125 L 11.429688 21.28125 Z M 11.429688 12 " clip-rule="nonzero"/></clipPath><clipPath id="428be6bad6"><path d="M 20.386719 21.277344 L 13.820312 21.277344 C 12.761719 21.277344 11.894531 20.410156 11.894531 19.347656 C 11.894531 18.289062 12.761719 17.421875 13.820312 17.421875 L 20.386719 17.421875 C 20.660156 17.421875 20.882812 17.203125 20.882812 16.929688 C 20.882812 16.652344 20.660156 16.433594 20.386719 16.433594 L 18.609375 16.433594 C 17.550781 16.433594 16.683594 15.566406 16.683594 14.507812 C 16.683594 13.445312 17.550781 12.582031 18.609375 12.582031 L 20.386719 12.582031 C 22.78125 12.582031 24.734375 14.535156 24.734375 16.929688 C 24.734375 19.320312 22.78125 21.277344 20.386719 21.277344 Z M 20.386719 21.277344 " clip-rule="nonzero"/></clipPath><linearGradient x1="63.468641" gradientTransform="matrix(0.0672061, 0, 0, 0.0672061, 11.431325, 7.725539)" y1="71.121028" x2="66.097817" gradientUnits="userSpaceOnUse" y2="204.224444" id="e645f2d4e3"><stop stop-opacity="1" stop-color="rgb(100%, 100%, 100%)" offset="0"/><stop stop-opacity="1" stop-color="rgb(99.807739%, 99.807739%, 99.807739%)" offset="0.0283402"/><stop stop-opacity="1" stop-color="rgb(99.617004%, 99.617004%, 99.617004%)" offset="0.25"/><stop stop-opacity="1" stop-color="rgb(99.516296%, 99.516296%, 99.516296%)" offset="0.375"/><stop stop-opacity="1" stop-color="rgb(99.316406%, 99.316406%, 99.316406%)" offset="0.5"/><stop stop-opacity="1" stop-color="rgb(99.116516%, 99.116516%, 99.116516%)" offset="0.625"/><stop stop-opacity="1" stop-color="rgb(98.9151%, 98.9151%, 98.9151%)" offset="0.75"/><stop stop-opacity="1" stop-color="rgb(98.71521%, 98.71521%, 98.71521%)" offset="0.875"/><stop stop-opacity="1" stop-color="rgb(98.51532%, 98.51532%, 98.51532%)" offset="0.97166"/><stop stop-opacity="1" stop-color="rgb(98.414612%, 98.414612%, 98.414612%)" offset="1"/></linearGradient></defs><g fill="#ffffff" fill-opacity="1"><g transform="translate(24.749924, 19.814756)"><g><path d="M 4.3125 0.171875 C 3.75 0.171875 3.265625 0.0664062 2.859375 -0.140625 C 2.453125 -0.347656 2.140625 -0.640625 1.921875 -1.015625 C 1.710938 -1.398438 1.609375 -1.851562 1.609375 -2.375 L 1.609375 -6.859375 L 0.21875 -6.859375 L 0.21875 -8.609375 L 1.640625 -8.609375 L 1.640625 -10.75 L 3.6875 -12.25 L 3.6875 -8.609375 L 5.859375 -8.609375 L 5.859375 -6.859375 L 3.6875 -6.859375 L 3.6875 -2.75 C 3.6875 -2.332031 3.78125 -2.050781 3.96875 -1.90625 C 4.15625 -1.757812 4.390625 -1.6875 4.671875 -1.6875 C 4.878906 -1.6875 5.09375 -1.71875 5.3125 -1.78125 C 5.53125 -1.851562 5.710938 -1.921875 5.859375 -1.984375 L 5.859375 -0.09375 C 5.703125 -0.03125 5.476562 0.0234375 5.1875 0.078125 C 4.90625 0.140625 4.613281 0.171875 4.3125 0.171875 Z M 4.3125 0.171875 "/></g></g></g><g fill="#ffffff" fill-opacity="1"><g transform="translate(30.364293, 19.814756)"><g><path d="M 4.125 0.171875 C 3.40625 0.171875 2.8125 0 2.34375 -0.34375 C 1.882812 -0.695312 1.539062 -1.191406 1.3125 -1.828125 C 1.09375 -2.460938 0.984375 -3.210938 0.984375 -4.078125 L 0.984375 -8.609375 L 3.125 -8.609375 L 3.125 -4.015625 C 3.125 -3.535156 3.164062 -3.125 3.25 -2.78125 C 3.332031 -2.445312 3.484375 -2.1875 3.703125 -2 C 3.929688 -1.820312 4.257812 -1.734375 4.6875 -1.734375 C 4.925781 -1.734375 5.164062 -1.769531 5.40625 -1.84375 C 5.644531 -1.925781 5.859375 -2.078125 6.046875 -2.296875 C 6.242188 -2.515625 6.394531 -2.816406 6.5 -3.203125 C 6.613281 -3.597656 6.671875 -4.109375 6.671875 -4.734375 L 6.671875 -8.609375 L 8.8125 -8.609375 L 8.8125 0 L 6.671875 0 L 6.671875 -1.015625 C 6.359375 -0.609375 5.984375 -0.304688 5.546875 -0.109375 C 5.109375 0.078125 4.632812 0.171875 4.125 0.171875 Z M 4.125 0.171875 "/></g></g></g><g fill="#ffffff" fill-opacity="1"><g transform="translate(39.537625, 19.814756)"><g><path d="M 6.6875 -12.1875 L 8.828125 -12.1875 L 8.828125 0 L 6.875 0 L 6.78125 -0.96875 C 6.476562 -0.5625 6.101562 -0.269531 5.65625 -0.09375 C 5.207031 0.0820312 4.75 0.171875 4.28125 0.171875 C 3.675781 0.171875 3.140625 0.0507812 2.671875 -0.1875 C 2.203125 -0.425781 1.8125 -0.753906 1.5 -1.171875 C 1.1875 -1.585938 0.945312 -2.0625 0.78125 -2.59375 C 0.625 -3.132812 0.546875 -3.707031 0.546875 -4.3125 C 0.546875 -4.90625 0.625 -5.46875 0.78125 -6 C 0.945312 -6.539062 1.1875 -7.019531 1.5 -7.4375 C 1.8125 -7.851562 2.195312 -8.179688 2.65625 -8.421875 C 3.113281 -8.671875 3.640625 -8.796875 4.234375 -8.796875 C 4.691406 -8.796875 5.140625 -8.710938 5.578125 -8.546875 C 6.015625 -8.390625 6.382812 -8.125 6.6875 -7.75 Z M 4.78125 -1.734375 C 5.269531 -1.734375 5.664062 -1.84375 5.96875 -2.0625 C 6.28125 -2.289062 6.507812 -2.597656 6.65625 -2.984375 C 6.800781 -3.378906 6.875 -3.820312 6.875 -4.3125 C 6.875 -4.789062 6.800781 -5.222656 6.65625 -5.609375 C 6.507812 -6.003906 6.28125 -6.316406 5.96875 -6.546875 C 5.664062 -6.773438 5.269531 -6.890625 4.78125 -6.890625 C 4.300781 -6.890625 3.90625 -6.773438 3.59375 -6.546875 C 3.28125 -6.316406 3.050781 -6.003906 2.90625 -5.609375 C 2.757812 -5.222656 2.6875 -4.789062 2.6875 -4.3125 C 2.6875 -3.832031 2.757812 -3.394531 2.90625 -3 C 3.050781 -2.601562 3.28125 -2.289062 3.59375 -2.0625 C 3.90625 -1.84375 4.300781 -1.734375 4.78125 -1.734375 Z M 4.78125 -1.734375 "/></g></g></g><g fill="#ffffff" fill-opacity="1"><g transform="translate(48.745426, 19.814756)"><g><path d="M 1.734375 3.703125 L 3.3125 -0.234375 L -0.046875 -8.609375 L 2.265625 -8.609375 L 4.4375 -2.625 L 6.640625 -8.609375 L 8.953125 -8.609375 L 4.03125 3.703125 Z M 1.734375 3.703125 "/></g></g></g><g fill="#ffffff" fill-opacity="1"><g transform="translate(56.755412, 19.814756)"><g><path d="M 1.265625 3.78125 L 1.265625 -8.609375 L 3.40625 -8.609375 L 3.40625 -7.75 C 3.707031 -8.125 4.070312 -8.390625 4.5 -8.546875 C 4.925781 -8.710938 5.367188 -8.796875 5.828125 -8.796875 C 6.429688 -8.796875 6.960938 -8.675781 7.421875 -8.4375 C 7.890625 -8.195312 8.28125 -7.867188 8.59375 -7.453125 C 8.90625 -7.035156 9.140625 -6.554688 9.296875 -6.015625 C 9.460938 -5.472656 9.546875 -4.90625 9.546875 -4.3125 C 9.546875 -3.707031 9.460938 -3.132812 9.296875 -2.59375 C 9.140625 -2.0625 8.90625 -1.585938 8.59375 -1.171875 C 8.28125 -0.753906 7.894531 -0.425781 7.4375 -0.1875 C 6.988281 0.0507812 6.460938 0.171875 5.859375 0.171875 C 5.410156 0.171875 4.960938 0.09375 4.515625 -0.0625 C 4.078125 -0.226562 3.707031 -0.492188 3.40625 -0.859375 L 3.40625 3.78125 Z M 5.3125 -1.765625 C 5.789062 -1.765625 6.1875 -1.875 6.5 -2.09375 C 6.8125 -2.320312 7.039062 -2.628906 7.1875 -3.015625 C 7.34375 -3.398438 7.421875 -3.832031 7.421875 -4.3125 C 7.421875 -4.789062 7.34375 -5.226562 7.1875 -5.625 C 7.039062 -6.019531 6.8125 -6.332031 6.5 -6.5625 C 6.1875 -6.789062 5.789062 -6.90625 5.3125 -6.90625 C 4.832031 -6.90625 4.4375 -6.789062 4.125 -6.5625 C 3.8125 -6.332031 3.582031 -6.019531 3.4375 -5.625 C 3.289062 -5.226562 3.21875 -4.789062 3.21875 -4.3125 C 3.21875 -3.832031 3.289062 -3.398438 3.4375 -3.015625 C 3.582031 -2.628906 3.8125 -2.320312 4.125 -2.09375 C 4.4375 -1.875 4.832031 -1.765625 5.3125 -1.765625 Z M 5.3125 -1.765625 "/></g></g></g><g fill="#ffffff" fill-opacity="1"><g transform="translate(65.963212, 19.814756)"><g><path d="M 4.859375 0.171875 C 4.191406 0.171875 3.585938 0.0507812 3.046875 -0.1875 C 2.503906 -0.425781 2.035156 -0.75 1.640625 -1.15625 C 1.253906 -1.570312 0.957031 -2.050781 0.75 -2.59375 C 0.539062 -3.132812 0.4375 -3.710938 0.4375 -4.328125 C 0.4375 -4.929688 0.539062 -5.503906 0.75 -6.046875 C 0.957031 -6.585938 1.253906 -7.0625 1.640625 -7.46875 C 2.035156 -7.882812 2.503906 -8.207031 3.046875 -8.4375 C 3.585938 -8.675781 4.191406 -8.796875 4.859375 -8.796875 C 5.523438 -8.796875 6.125 -8.675781 6.65625 -8.4375 C 7.195312 -8.207031 7.660156 -7.882812 8.046875 -7.46875 C 8.441406 -7.0625 8.742188 -6.585938 8.953125 -6.046875 C 9.160156 -5.503906 9.265625 -4.929688 9.265625 -4.328125 C 9.265625 -3.710938 9.160156 -3.132812 8.953125 -2.59375 C 8.742188 -2.050781 8.441406 -1.570312 8.046875 -1.15625 C 7.660156 -0.75 7.195312 -0.425781 6.65625 -0.1875 C 6.125 0.0507812 5.523438 0.171875 4.859375 0.171875 Z M 4.859375 -1.640625 C 5.253906 -1.640625 5.59375 -1.710938 5.875 -1.859375 C 6.15625 -2.003906 6.382812 -2.203125 6.5625 -2.453125 C 6.738281 -2.703125 6.867188 -2.988281 6.953125 -3.3125 C 7.035156 -3.632812 7.078125 -3.972656 7.078125 -4.328125 C 7.078125 -4.679688 7.035156 -5.015625 6.953125 -5.328125 C 6.867188 -5.648438 6.738281 -5.929688 6.5625 -6.171875 C 6.382812 -6.421875 6.15625 -6.613281 5.875 -6.75 C 5.59375 -6.894531 5.253906 -6.96875 4.859375 -6.96875 C 4.328125 -6.96875 3.894531 -6.84375 3.5625 -6.59375 C 3.238281 -6.351562 3 -6.03125 2.84375 -5.625 C 2.695312 -5.226562 2.625 -4.796875 2.625 -4.328125 C 2.625 -3.972656 2.664062 -3.632812 2.75 -3.3125 C 2.832031 -2.988281 2.960938 -2.703125 3.140625 -2.453125 C 3.316406 -2.203125 3.546875 -2.003906 3.828125 -1.859375 C 4.117188 -1.710938 4.460938 -1.640625 4.859375 -1.640625 Z M 4.859375 -1.640625 "/></g></g></g><g fill="#ffffff" fill-opacity="1"><g transform="translate(74.800459, 19.814756)"><g><path d="M 1.203125 -10.234375 L 1.203125 -12.1875 L 3.390625 -12.1875 L 3.390625 -10.234375 Z M 1.25 0 L 1.25 -8.609375 L 3.34375 -8.609375 L 3.34375 0 Z M 1.25 0 "/></g></g></g><g fill="#ffffff" fill-opacity="1"><g transform="translate(78.501783, 19.814756)"><g><path d="M 1.25 0 L 1.25 -8.609375 L 3.34375 -8.609375 L 3.34375 -7.609375 C 3.570312 -7.890625 3.828125 -8.113281 4.109375 -8.28125 C 4.398438 -8.457031 4.695312 -8.585938 5 -8.671875 C 5.300781 -8.753906 5.59375 -8.796875 5.875 -8.796875 C 6.4375 -8.796875 6.914062 -8.691406 7.3125 -8.484375 C 7.71875 -8.285156 8.039062 -8.007812 8.28125 -7.65625 C 8.53125 -7.3125 8.710938 -6.921875 8.828125 -6.484375 C 8.941406 -6.054688 9 -5.617188 9 -5.171875 L 9 0 L 6.921875 0 L 6.921875 -4.90625 C 6.921875 -5.28125 6.859375 -5.613281 6.734375 -5.90625 C 6.609375 -6.207031 6.421875 -6.441406 6.171875 -6.609375 C 5.929688 -6.773438 5.632812 -6.859375 5.28125 -6.859375 C 4.6875 -6.859375 4.210938 -6.6875 3.859375 -6.34375 C 3.515625 -6.007812 3.34375 -5.46875 3.34375 -4.71875 L 3.34375 0 Z M 1.25 0 "/></g></g></g><g fill="#ffffff" fill-opacity="1"><g transform="translate(87.623413, 19.814756)"><g><path d="M 4.3125 0.171875 C 3.75 0.171875 3.265625 0.0664062 2.859375 -0.140625 C 2.453125 -0.347656 2.140625 -0.640625 1.921875 -1.015625 C 1.710938 -1.398438 1.609375 -1.851562 1.609375 -2.375 L 1.609375 -6.859375 L 0.21875 -6.859375 L 0.21875 -8.609375 L 1.640625 -8.609375 L 1.640625 -10.75 L 3.6875 -12.25 L 3.6875 -8.609375 L 5.859375 -8.609375 L 5.859375 -6.859375 L 3.6875 -6.859375 L 3.6875 -2.75 C 3.6875 -2.332031 3.78125 -2.050781 3.96875 -1.90625 C 4.15625 -1.757812 4.390625 -1.6875 4.671875 -1.6875 C 4.878906 -1.6875 5.09375 -1.71875 5.3125 -1.78125 C 5.53125 -1.851562 5.710938 -1.921875 5.859375 -1.984375 L 5.859375 -0.09375 C 5.703125 -0.03125 5.476562 0.0234375 5.1875 0.078125 C 4.90625 0.140625 4.613281 0.171875 4.3125 0.171875 Z M 4.3125 0.171875 "/></g></g></g><g fill="#ffffff" fill-opacity="1"><g transform="translate(93.23778, 19.814756)"><g><path d="M 3.84375 0.171875 C 3.238281 0.171875 2.6875 0.0625 2.1875 -0.15625 C 1.695312 -0.375 1.285156 -0.664062 0.953125 -1.03125 C 0.617188 -1.394531 0.378906 -1.796875 0.234375 -2.234375 L 1.90625 -2.984375 C 1.988281 -2.773438 2.097656 -2.5625 2.234375 -2.34375 C 2.367188 -2.125 2.554688 -1.9375 2.796875 -1.78125 C 3.046875 -1.632812 3.359375 -1.5625 3.734375 -1.5625 C 4.066406 -1.5625 4.332031 -1.613281 4.53125 -1.71875 C 4.738281 -1.832031 4.890625 -1.96875 4.984375 -2.125 C 5.085938 -2.289062 5.140625 -2.445312 5.140625 -2.59375 C 5.140625 -2.800781 5.0625 -2.96875 4.90625 -3.09375 C 4.75 -3.21875 4.539062 -3.316406 4.28125 -3.390625 C 4.019531 -3.472656 3.734375 -3.550781 3.421875 -3.625 C 3.117188 -3.695312 2.8125 -3.785156 2.5 -3.890625 C 2.195312 -4.003906 1.914062 -4.148438 1.65625 -4.328125 C 1.40625 -4.515625 1.203125 -4.75 1.046875 -5.03125 C 0.890625 -5.3125 0.8125 -5.671875 0.8125 -6.109375 C 0.8125 -6.566406 0.898438 -6.960938 1.078125 -7.296875 C 1.253906 -7.628906 1.488281 -7.90625 1.78125 -8.125 C 2.082031 -8.351562 2.425781 -8.519531 2.8125 -8.625 C 3.195312 -8.738281 3.597656 -8.796875 4.015625 -8.796875 C 4.753906 -8.796875 5.398438 -8.628906 5.953125 -8.296875 C 6.503906 -7.960938 6.945312 -7.503906 7.28125 -6.921875 L 5.640625 -6.03125 C 5.546875 -6.207031 5.425781 -6.378906 5.28125 -6.546875 C 5.132812 -6.710938 4.953125 -6.847656 4.734375 -6.953125 C 4.515625 -7.066406 4.25 -7.125 3.9375 -7.125 C 3.59375 -7.125 3.320312 -7.050781 3.125 -6.90625 C 2.925781 -6.757812 2.828125 -6.585938 2.828125 -6.390625 C 2.828125 -6.203125 2.90625 -6.050781 3.0625 -5.9375 C 3.21875 -5.820312 3.425781 -5.722656 3.6875 -5.640625 C 3.957031 -5.554688 4.242188 -5.472656 4.546875 -5.390625 C 4.859375 -5.304688 5.171875 -5.195312 5.484375 -5.0625 C 5.796875 -4.9375 6.082031 -4.773438 6.34375 -4.578125 C 6.601562 -4.390625 6.8125 -4.140625 6.96875 -3.828125 C 7.125 -3.523438 7.203125 -3.148438 7.203125 -2.703125 C 7.203125 -2.203125 7.101562 -1.769531 6.90625 -1.40625 C 6.71875 -1.050781 6.457031 -0.753906 6.125 -0.515625 C 5.800781 -0.273438 5.441406 -0.101562 5.046875 0 C 4.648438 0.113281 4.25 0.171875 3.84375 0.171875 Z M 3.84375 0.171875 "/></g></g></g><g fill="#ffffff" fill-opacity="1"><g transform="translate(100.18784, 19.814756)"><g><path d="M 0.390625 0 L 0.390625 -1.734375 C 0.398438 -1.742188 0.5 -1.804688 0.6875 -1.921875 C 0.882812 -2.046875 1.140625 -2.210938 1.453125 -2.421875 C 1.773438 -2.628906 2.128906 -2.875 2.515625 -3.15625 C 2.910156 -3.4375 3.3125 -3.742188 3.71875 -4.078125 C 4.125 -4.421875 4.515625 -4.773438 4.890625 -5.140625 C 5.265625 -5.503906 5.597656 -5.867188 5.890625 -6.234375 C 6.179688 -6.609375 6.410156 -6.992188 6.578125 -7.390625 C 6.753906 -7.785156 6.84375 -8.191406 6.84375 -8.609375 C 6.84375 -8.941406 6.78125 -9.238281 6.65625 -9.5 C 6.539062 -9.769531 6.359375 -9.984375 6.109375 -10.140625 C 5.859375 -10.296875 5.53125 -10.375 5.125 -10.375 C 4.726562 -10.375 4.394531 -10.296875 4.125 -10.140625 C 3.863281 -9.992188 3.648438 -9.789062 3.484375 -9.53125 C 3.328125 -9.269531 3.210938 -8.984375 3.140625 -8.671875 C 3.066406 -8.367188 3.023438 -8.0625 3.015625 -7.75 L 0.875 -7.890625 C 0.875 -8.453125 0.96875 -9 1.15625 -9.53125 C 1.34375 -10.070312 1.617188 -10.550781 1.984375 -10.96875 C 2.347656 -11.394531 2.789062 -11.726562 3.3125 -11.96875 C 3.84375 -12.21875 4.441406 -12.34375 5.109375 -12.34375 C 5.671875 -12.34375 6.1875 -12.253906 6.65625 -12.078125 C 7.132812 -11.898438 7.550781 -11.648438 7.90625 -11.328125 C 8.269531 -11.003906 8.546875 -10.617188 8.734375 -10.171875 C 8.929688 -9.734375 9.03125 -9.253906 9.03125 -8.734375 C 9.03125 -8.265625 8.953125 -7.800781 8.796875 -7.34375 C 8.640625 -6.894531 8.425781 -6.457031 8.15625 -6.03125 C 7.894531 -5.613281 7.597656 -5.210938 7.265625 -4.828125 C 6.929688 -4.441406 6.585938 -4.078125 6.234375 -3.734375 C 5.828125 -3.335938 5.425781 -2.988281 5.03125 -2.6875 C 4.632812 -2.382812 4.289062 -2.144531 4 -1.96875 L 9.625 -1.96875 L 9.625 0 Z M 0.390625 0 "/></g></g></g><g fill="#ffffff" fill-opacity="1"><g transform="translate(109.542127, 19.814756)"><g><path d="M 5.703125 0 L 5.703125 -2.859375 L 0.0625 -2.859375 L 0.0625 -4.125 L 6.015625 -12.1875 L 7.859375 -12.1875 L 7.859375 -4.859375 L 9.796875 -4.859375 L 9.796875 -2.859375 L 7.859375 -2.859375 L 7.859375 0 Z M 2.875 -4.859375 L 5.703125 -4.859375 L 5.703125 -8.828125 Z M 2.875 -4.859375 "/></g></g></g><g clip-path="url(#c7a3f06a15)"><g clip-path="url(#c9fe34d931)"><path fill="url(#d178fd4fa8)" d="M 11.496094 7.738281 L 11.496094 16.433594 L 24.335938 16.433594 L 24.335938 7.738281 Z M 11.496094 7.738281 " fill-rule="nonzero"/></g></g><g clip-path="url(#11f03758ce)"><g clip-path="url(#428be6bad6)"><path fill="url(#e645f2d4e3)" d="M 11.894531 12.582031 L 11.894531 21.277344 L 24.734375 21.277344 L 24.734375 12.582031 Z M 11.894531 12.582031 " fill-rule="nonzero"/></g></g></svg>