<svg xmlns="http://www.w3.org/2000/svg" xmlns:xlink="http://www.w3.org/1999/xlink" width="200" zoomAndPan="magnify" viewBox="0 0 150 30.000001" height="40" preserveAspectRatio="xMidYMid meet" version="1.0"><defs><g/><clipPath id="36f7b7c9de"><path d="M 3.871094 6.078125 L 24.195312 6.078125 L 24.195312 22.773438 L 3.871094 22.773438 Z M 3.871094 6.078125 " clip-rule="nonzero"/></clipPath><clipPath id="c088b7ea71"><path d="M 0.289062 4 L 11 4 L 11 17 L 0.289062 17 Z M 0.289062 4 " clip-rule="nonzero"/></clipPath><clipPath id="e50fafe632"><path d="M 104 4 L 116.417969 4 L 116.417969 17 L 104 17 Z M 104 4 " clip-rule="nonzero"/></clipPath><clipPath id="980c307513"><rect x="0" width="117" y="0" height="24"/></clipPath></defs><g clip-path="url(#36f7b7c9de)"><path fill="#ffffff" d="M 7.621094 15.621094 L 7.621094 19.371094 L 14.179688 22.949219 L 20.738281 19.371094 L 20.738281 15.621094 L 14.179688 19.203125 Z M 14.179688 6.082031 L 3.871094 11.703125 L 14.179688 17.328125 L 22.613281 12.726562 L 22.613281 19.203125 L 24.488281 19.203125 L 24.488281 11.703125 Z M 14.179688 6.082031 " fill-opacity="1" fill-rule="nonzero"/></g><g transform="matrix(1, 0, 0, 1, 30, 3)"><g clip-path="url(#980c307513)"><g clip-path="url(#c088b7ea71)"><g fill="#ffffff" fill-opacity="1"><g transform="translate(0.319363, 16.898129)"><g><path d="M 9.546875 0 L 2.8125 0 L 0.796875 0.078125 C 0.617188 0.078125 0.53125 0 0.53125 -0.15625 C 0.53125 -0.320312 0.597656 -0.40625 0.734375 -0.40625 L 1.25 -0.453125 C 1.488281 -0.472656 1.6875 -0.546875 1.84375 -0.671875 C 2 -0.796875 2.078125 -0.96875 2.078125 -1.1875 L 2.078125 -11.375 C 2.078125 -11.800781 1.800781 -12.039062 1.25 -12.09375 L 0.734375 -12.140625 C 0.597656 -12.140625 0.53125 -12.21875 0.53125 -12.375 C 0.53125 -12.539062 0.617188 -12.625 0.796875 -12.625 L 2.8125 -12.5625 L 9.1875 -12.5625 C 9.414062 -12.5625 9.597656 -12.488281 9.734375 -12.34375 C 9.878906 -12.207031 9.960938 -12.039062 9.984375 -11.84375 L 10.25 -10.1875 C 10.269531 -9.96875 10.179688 -9.859375 9.984375 -9.859375 C 9.785156 -9.859375 9.65625 -9.957031 9.59375 -10.15625 C 9.414062 -10.726562 9.144531 -11.132812 8.78125 -11.375 C 8.425781 -11.613281 7.929688 -11.734375 7.296875 -11.734375 L 4.484375 -11.734375 C 4.222656 -11.734375 4.007812 -11.65625 3.84375 -11.5 C 3.6875 -11.351562 3.609375 -11.148438 3.609375 -10.890625 L 3.609375 -7.125 C 3.609375 -6.96875 3.6875 -6.890625 3.84375 -6.890625 L 7.171875 -6.890625 C 7.335938 -6.890625 7.46875 -6.929688 7.5625 -7.015625 C 7.664062 -7.097656 7.726562 -7.175781 7.75 -7.25 C 7.78125 -7.320312 7.828125 -7.453125 7.890625 -7.640625 L 7.96875 -7.875 C 8 -8.019531 8.085938 -8.09375 8.234375 -8.09375 C 8.378906 -8.09375 8.453125 -8.007812 8.453125 -7.84375 L 8.375 -6.3125 L 8.453125 -4.859375 C 8.453125 -4.703125 8.375 -4.613281 8.21875 -4.59375 C 8.070312 -4.59375 7.988281 -4.664062 7.96875 -4.8125 L 7.90625 -5.125 C 7.800781 -5.75 7.554688 -6.0625 7.171875 -6.0625 L 3.828125 -6.0625 C 3.679688 -6.0625 3.609375 -5.976562 3.609375 -5.8125 L 3.609375 -1.65625 C 3.609375 -1.40625 3.6875 -1.203125 3.84375 -1.046875 C 4.007812 -0.898438 4.222656 -0.828125 4.484375 -0.828125 L 7.4375 -0.828125 C 8.0625 -0.828125 8.597656 -0.976562 9.046875 -1.28125 C 9.492188 -1.582031 9.804688 -2.03125 9.984375 -2.625 C 10.046875 -2.8125 10.144531 -2.90625 10.28125 -2.90625 C 10.425781 -2.90625 10.523438 -2.867188 10.578125 -2.796875 C 10.628906 -2.734375 10.648438 -2.660156 10.640625 -2.578125 L 10.34375 -0.71875 C 10.320312 -0.507812 10.234375 -0.335938 10.078125 -0.203125 C 9.929688 -0.0664062 9.753906 0 9.546875 0 Z M 9.546875 0 "/></g></g></g></g><g fill="#ffffff" fill-opacity="1"><g transform="translate(11.692191, 16.898129)"><g><path d="M 3.921875 -0.453125 C 4.066406 -0.441406 4.140625 -0.359375 4.140625 -0.203125 C 4.140625 -0.046875 4.050781 0.03125 3.875 0.03125 L 2.515625 0 L 0.625 0.046875 C 0.457031 0.046875 0.375 -0.0195312 0.375 -0.15625 C 0.375 -0.300781 0.441406 -0.382812 0.578125 -0.40625 L 1.109375 -0.46875 C 1.472656 -0.5 1.816406 -0.738281 2.140625 -1.1875 L 5.5625 -6.140625 L 2.109375 -11.375 C 1.828125 -11.8125 1.484375 -12.050781 1.078125 -12.09375 L 0.5625 -12.140625 C 0.425781 -12.160156 0.359375 -12.242188 0.359375 -12.390625 C 0.359375 -12.535156 0.441406 -12.609375 0.609375 -12.609375 L 2.703125 -12.5625 L 4.5625 -12.59375 C 4.738281 -12.59375 4.828125 -12.515625 4.828125 -12.359375 C 4.828125 -12.203125 4.753906 -12.117188 4.609375 -12.109375 L 4.28125 -12.078125 C 4.082031 -12.046875 3.945312 -11.957031 3.875 -11.8125 C 3.800781 -11.664062 3.8125 -11.519531 3.90625 -11.375 L 6.46875 -7.4375 L 9.203125 -11.375 C 9.304688 -11.5 9.320312 -11.640625 9.25 -11.796875 C 9.175781 -11.953125 9.035156 -12.046875 8.828125 -12.078125 L 8.484375 -12.109375 C 8.335938 -12.117188 8.265625 -12.203125 8.265625 -12.359375 C 8.265625 -12.515625 8.351562 -12.59375 8.53125 -12.59375 L 9.90625 -12.5625 L 11.78125 -12.609375 C 11.945312 -12.609375 12.03125 -12.535156 12.03125 -12.390625 C 12.03125 -12.242188 11.96875 -12.160156 11.84375 -12.140625 L 11.296875 -12.09375 C 10.941406 -12.050781 10.601562 -11.8125 10.28125 -11.375 L 7 -6.65625 L 10.59375 -1.1875 C 10.90625 -0.738281 11.257812 -0.5 11.65625 -0.46875 L 12.15625 -0.40625 C 12.289062 -0.382812 12.359375 -0.300781 12.359375 -0.15625 C 12.359375 -0.0195312 12.273438 0.046875 12.109375 0.046875 L 10.03125 0 L 8.15625 0.03125 C 7.976562 0.03125 7.890625 -0.046875 7.890625 -0.203125 C 7.890625 -0.359375 7.960938 -0.441406 8.109375 -0.453125 L 8.453125 -0.484375 C 8.648438 -0.503906 8.785156 -0.585938 8.859375 -0.734375 C 8.929688 -0.890625 8.921875 -1.039062 8.828125 -1.1875 L 6.078125 -5.34375 L 3.203125 -1.1875 C 3.097656 -1.039062 3.082031 -0.890625 3.15625 -0.734375 C 3.226562 -0.585938 3.375 -0.503906 3.59375 -0.484375 Z M 3.921875 -0.453125 "/></g></g></g><g fill="#ffffff" fill-opacity="1"><g transform="translate(24.410385, 16.898129)"><g><path d="M 4.078125 -4.9375 L 8.078125 -4.9375 C 8.203125 -4.9375 8.242188 -5.003906 8.203125 -5.140625 L 6.0625 -10.640625 L 3.921875 -5.109375 C 3.890625 -4.992188 3.941406 -4.9375 4.078125 -4.9375 Z M 2.40625 -1.1875 C 2.382812 -1.113281 2.375 -1.03125 2.375 -0.9375 C 2.375 -0.851562 2.421875 -0.753906 2.515625 -0.640625 C 2.609375 -0.523438 2.738281 -0.460938 2.90625 -0.453125 L 3.296875 -0.40625 C 3.453125 -0.382812 3.53125 -0.304688 3.53125 -0.171875 C 3.53125 -0.00390625 3.441406 0.078125 3.265625 0.078125 L 1.703125 0 L 0.078125 0.078125 C -0.0859375 0.078125 -0.171875 0 -0.171875 -0.15625 C -0.171875 -0.320312 -0.109375 -0.40625 0.015625 -0.40625 L 0.359375 -0.453125 C 0.867188 -0.503906 1.21875 -0.75 1.40625 -1.1875 L 6.015625 -12.53125 C 6.054688 -12.675781 6.191406 -12.75 6.421875 -12.75 C 6.660156 -12.75 6.8125 -12.675781 6.875 -12.53125 L 11.46875 -1.1875 C 11.613281 -0.738281 11.953125 -0.492188 12.484375 -0.453125 L 12.859375 -0.40625 C 12.910156 -0.40625 12.953125 -0.378906 12.984375 -0.328125 C 13.023438 -0.285156 13.046875 -0.242188 13.046875 -0.203125 C 13.046875 -0.015625 12.960938 0.078125 12.796875 0.078125 L 10.734375 0 L 8.875 0.078125 C 8.707031 0.078125 8.625 0.00390625 8.625 -0.140625 C 8.625 -0.304688 8.695312 -0.394531 8.84375 -0.40625 L 9.25 -0.453125 C 9.40625 -0.460938 9.535156 -0.519531 9.640625 -0.625 C 9.742188 -0.738281 9.796875 -0.84375 9.796875 -0.9375 C 9.796875 -1.03125 9.773438 -1.113281 9.734375 -1.1875 L 8.6875 -3.921875 C 8.644531 -4.046875 8.546875 -4.109375 8.390625 -4.109375 L 3.75 -4.109375 C 3.601562 -4.109375 3.507812 -4.046875 3.46875 -3.921875 Z M 2.40625 -1.1875 "/></g></g></g><g fill="#ffffff" fill-opacity="1"><g transform="translate(37.272084, 16.898129)"><g><path d="M 16.765625 -0.171875 C 16.765625 -0.109375 16.738281 -0.0507812 16.6875 0 C 16.632812 0.0507812 16.578125 0.078125 16.515625 0.078125 L 14.5 0 L 12.71875 0.078125 C 12.550781 0.078125 12.46875 0.00390625 12.46875 -0.140625 C 12.46875 -0.296875 12.53125 -0.382812 12.65625 -0.40625 L 12.96875 -0.453125 C 13.46875 -0.503906 13.71875 -0.75 13.71875 -1.1875 L 13.578125 -9.671875 C 13.578125 -9.785156 13.539062 -9.84375 13.46875 -9.84375 C 13.4375 -9.84375 13.414062 -9.828125 13.40625 -9.796875 L 8.515625 -0.03125 C 8.460938 0.0703125 8.390625 0.125 8.296875 0.125 C 8.210938 0.125 8.148438 0.0703125 8.109375 -0.03125 L 3.203125 -9.5 C 3.191406 -9.539062 3.171875 -9.5625 3.140625 -9.5625 C 3.066406 -9.5625 3.03125 -9.5 3.03125 -9.375 L 2.921875 -1.1875 C 2.921875 -0.789062 3.160156 -0.550781 3.640625 -0.46875 L 3.953125 -0.40625 C 4.097656 -0.382812 4.171875 -0.300781 4.171875 -0.15625 C 4.171875 -0.0195312 4.082031 0.046875 3.90625 0.046875 L 2.4375 0 L 0.703125 0.046875 C 0.535156 0.046875 0.453125 -0.0195312 0.453125 -0.15625 C 0.453125 -0.300781 0.515625 -0.382812 0.640625 -0.40625 L 1.171875 -0.46875 C 1.710938 -0.53125 1.984375 -0.769531 1.984375 -1.1875 L 2.203125 -11.375 C 2.210938 -11.789062 1.972656 -12.03125 1.484375 -12.09375 L 1.171875 -12.125 C 1.023438 -12.144531 0.953125 -12.226562 0.953125 -12.375 C 0.953125 -12.53125 1.039062 -12.609375 1.21875 -12.609375 L 2.796875 -12.5625 C 3.203125 -12.539062 3.457031 -12.421875 3.5625 -12.203125 L 8.640625 -2.15625 L 13.59375 -12.203125 C 13.707031 -12.410156 13.972656 -12.53125 14.390625 -12.5625 L 15.984375 -12.609375 C 16.171875 -12.609375 16.265625 -12.53125 16.265625 -12.375 C 16.265625 -12.226562 16.191406 -12.144531 16.046875 -12.125 L 15.734375 -12.09375 C 15.265625 -12.050781 15.03125 -11.8125 15.03125 -11.375 L 15.25 -1.1875 C 15.25 -0.96875 15.320312 -0.796875 15.46875 -0.671875 C 15.613281 -0.546875 15.800781 -0.472656 16.03125 -0.453125 L 16.5625 -0.40625 C 16.695312 -0.40625 16.765625 -0.328125 16.765625 -0.171875 Z M 16.765625 -0.171875 "/></g></g></g><g fill="#ffffff" fill-opacity="1"><g transform="translate(54.492767, 16.898129)"><g/></g></g><g fill="#ffffff" fill-opacity="1"><g transform="translate(58.618554, 16.898129)"><g><path d="M 7.6875 -7.046875 C 8.226562 -7.566406 8.5 -8.234375 8.5 -9.046875 C 8.5 -9.859375 8.226562 -10.515625 7.6875 -11.015625 C 7.15625 -11.515625 6.394531 -11.765625 5.40625 -11.765625 L 4.328125 -11.765625 C 3.847656 -11.765625 3.609375 -11.523438 3.609375 -11.046875 L 3.609375 -6.5 C 3.609375 -6.34375 3.671875 -6.265625 3.796875 -6.265625 L 5.40625 -6.265625 C 6.394531 -6.265625 7.15625 -6.523438 7.6875 -7.046875 Z M 5.78125 -12.5625 C 7.15625 -12.5625 8.226562 -12.242188 9 -11.609375 C 9.769531 -10.972656 10.15625 -10.128906 10.15625 -9.078125 C 10.15625 -8.035156 9.773438 -7.164062 9.015625 -6.46875 C 8.265625 -5.78125 7.253906 -5.4375 5.984375 -5.4375 L 3.875 -5.4375 C 3.695312 -5.4375 3.609375 -5.363281 3.609375 -5.21875 L 3.609375 -1.1875 C 3.609375 -0.96875 3.6875 -0.789062 3.84375 -0.65625 C 4 -0.53125 4.1875 -0.460938 4.40625 -0.453125 L 5.171875 -0.40625 C 5.296875 -0.40625 5.359375 -0.320312 5.359375 -0.15625 C 5.359375 0 5.273438 0.078125 5.109375 0.078125 L 2.875 0 L 0.875 0.078125 C 0.695312 0.078125 0.609375 0.00390625 0.609375 -0.140625 C 0.609375 -0.304688 0.679688 -0.394531 0.828125 -0.40625 L 1.34375 -0.453125 C 1.832031 -0.484375 2.078125 -0.726562 2.078125 -1.1875 L 2.078125 -11.375 C 2.078125 -11.800781 1.800781 -12.039062 1.25 -12.09375 L 0.734375 -12.140625 C 0.597656 -12.160156 0.53125 -12.238281 0.53125 -12.375 C 0.53125 -12.539062 0.617188 -12.625 0.796875 -12.625 L 3.265625 -12.5625 Z M 5.78125 -12.5625 "/></g></g></g><g fill="#ffffff" fill-opacity="1"><g transform="translate(69.309727, 16.898129)"><g><path d="M 4.078125 -4.9375 L 8.078125 -4.9375 C 8.203125 -4.9375 8.242188 -5.003906 8.203125 -5.140625 L 6.0625 -10.640625 L 3.921875 -5.109375 C 3.890625 -4.992188 3.941406 -4.9375 4.078125 -4.9375 Z M 2.40625 -1.1875 C 2.382812 -1.113281 2.375 -1.03125 2.375 -0.9375 C 2.375 -0.851562 2.421875 -0.753906 2.515625 -0.640625 C 2.609375 -0.523438 2.738281 -0.460938 2.90625 -0.453125 L 3.296875 -0.40625 C 3.453125 -0.382812 3.53125 -0.304688 3.53125 -0.171875 C 3.53125 -0.00390625 3.441406 0.078125 3.265625 0.078125 L 1.703125 0 L 0.078125 0.078125 C -0.0859375 0.078125 -0.171875 0 -0.171875 -0.15625 C -0.171875 -0.320312 -0.109375 -0.40625 0.015625 -0.40625 L 0.359375 -0.453125 C 0.867188 -0.503906 1.21875 -0.75 1.40625 -1.1875 L 6.015625 -12.53125 C 6.054688 -12.675781 6.191406 -12.75 6.421875 -12.75 C 6.660156 -12.75 6.8125 -12.675781 6.875 -12.53125 L 11.46875 -1.1875 C 11.613281 -0.738281 11.953125 -0.492188 12.484375 -0.453125 L 12.859375 -0.40625 C 12.910156 -0.40625 12.953125 -0.378906 12.984375 -0.328125 C 13.023438 -0.285156 13.046875 -0.242188 13.046875 -0.203125 C 13.046875 -0.015625 12.960938 0.078125 12.796875 0.078125 L 10.734375 0 L 8.875 0.078125 C 8.707031 0.078125 8.625 0.00390625 8.625 -0.140625 C 8.625 -0.304688 8.695312 -0.394531 8.84375 -0.40625 L 9.25 -0.453125 C 9.40625 -0.460938 9.535156 -0.519531 9.640625 -0.625 C 9.742188 -0.738281 9.796875 -0.84375 9.796875 -0.9375 C 9.796875 -1.03125 9.773438 -1.113281 9.734375 -1.1875 L 8.6875 -3.921875 C 8.644531 -4.046875 8.546875 -4.109375 8.390625 -4.109375 L 3.75 -4.109375 C 3.601562 -4.109375 3.507812 -4.046875 3.46875 -3.921875 Z M 2.40625 -1.1875 "/></g></g></g><g fill="#ffffff" fill-opacity="1"><g transform="translate(82.171426, 16.898129)"><g><path d="M 7.6875 -7.046875 C 8.226562 -7.566406 8.5 -8.234375 8.5 -9.046875 C 8.5 -9.859375 8.226562 -10.515625 7.6875 -11.015625 C 7.15625 -11.515625 6.394531 -11.765625 5.40625 -11.765625 L 4.328125 -11.765625 C 3.847656 -11.765625 3.609375 -11.523438 3.609375 -11.046875 L 3.609375 -6.5 C 3.609375 -6.34375 3.671875 -6.265625 3.796875 -6.265625 L 5.40625 -6.265625 C 6.394531 -6.265625 7.15625 -6.523438 7.6875 -7.046875 Z M 5.78125 -12.5625 C 7.15625 -12.5625 8.226562 -12.242188 9 -11.609375 C 9.769531 -10.972656 10.15625 -10.128906 10.15625 -9.078125 C 10.15625 -8.035156 9.773438 -7.164062 9.015625 -6.46875 C 8.265625 -5.78125 7.253906 -5.4375 5.984375 -5.4375 L 3.875 -5.4375 C 3.695312 -5.4375 3.609375 -5.363281 3.609375 -5.21875 L 3.609375 -1.1875 C 3.609375 -0.96875 3.6875 -0.789062 3.84375 -0.65625 C 4 -0.53125 4.1875 -0.460938 4.40625 -0.453125 L 5.171875 -0.40625 C 5.296875 -0.40625 5.359375 -0.320312 5.359375 -0.15625 C 5.359375 0 5.273438 0.078125 5.109375 0.078125 L 2.875 0 L 0.875 0.078125 C 0.695312 0.078125 0.609375 0.00390625 0.609375 -0.140625 C 0.609375 -0.304688 0.679688 -0.394531 0.828125 -0.40625 L 1.34375 -0.453125 C 1.832031 -0.484375 2.078125 -0.726562 2.078125 -1.1875 L 2.078125 -11.375 C 2.078125 -11.800781 1.800781 -12.039062 1.25 -12.09375 L 0.734375 -12.140625 C 0.597656 -12.160156 0.53125 -12.238281 0.53125 -12.375 C 0.53125 -12.539062 0.617188 -12.625 0.796875 -12.625 L 3.265625 -12.5625 Z M 5.78125 -12.5625 "/></g></g></g><g fill="#ffffff" fill-opacity="1"><g transform="translate(92.862599, 16.898129)"><g><path d="M 9.546875 0 L 2.8125 0 L 0.796875 0.078125 C 0.617188 0.078125 0.53125 0 0.53125 -0.15625 C 0.53125 -0.320312 0.597656 -0.40625 0.734375 -0.40625 L 1.25 -0.453125 C 1.488281 -0.472656 1.6875 -0.546875 1.84375 -0.671875 C 2 -0.796875 2.078125 -0.96875 2.078125 -1.1875 L 2.078125 -11.375 C 2.078125 -11.800781 1.800781 -12.039062 1.25 -12.09375 L 0.734375 -12.140625 C 0.597656 -12.140625 0.53125 -12.21875 0.53125 -12.375 C 0.53125 -12.539062 0.617188 -12.625 0.796875 -12.625 L 2.8125 -12.5625 L 9.1875 -12.5625 C 9.414062 -12.5625 9.597656 -12.488281 9.734375 -12.34375 C 9.878906 -12.207031 9.960938 -12.039062 9.984375 -11.84375 L 10.25 -10.1875 C 10.269531 -9.96875 10.179688 -9.859375 9.984375 -9.859375 C 9.785156 -9.859375 9.65625 -9.957031 9.59375 -10.15625 C 9.414062 -10.726562 9.144531 -11.132812 8.78125 -11.375 C 8.425781 -11.613281 7.929688 -11.734375 7.296875 -11.734375 L 4.484375 -11.734375 C 4.222656 -11.734375 4.007812 -11.65625 3.84375 -11.5 C 3.6875 -11.351562 3.609375 -11.148438 3.609375 -10.890625 L 3.609375 -7.125 C 3.609375 -6.96875 3.6875 -6.890625 3.84375 -6.890625 L 7.171875 -6.890625 C 7.335938 -6.890625 7.46875 -6.929688 7.5625 -7.015625 C 7.664062 -7.097656 7.726562 -7.175781 7.75 -7.25 C 7.78125 -7.320312 7.828125 -7.453125 7.890625 -7.640625 L 7.96875 -7.875 C 8 -8.019531 8.085938 -8.09375 8.234375 -8.09375 C 8.378906 -8.09375 8.453125 -8.007812 8.453125 -7.84375 L 8.375 -6.3125 L 8.453125 -4.859375 C 8.453125 -4.703125 8.375 -4.613281 8.21875 -4.59375 C 8.070312 -4.59375 7.988281 -4.664062 7.96875 -4.8125 L 7.90625 -5.125 C 7.800781 -5.75 7.554688 -6.0625 7.171875 -6.0625 L 3.828125 -6.0625 C 3.679688 -6.0625 3.609375 -5.976562 3.609375 -5.8125 L 3.609375 -1.65625 C 3.609375 -1.40625 3.6875 -1.203125 3.84375 -1.046875 C 4.007812 -0.898438 4.222656 -0.828125 4.484375 -0.828125 L 7.4375 -0.828125 C 8.0625 -0.828125 8.597656 -0.976562 9.046875 -1.28125 C 9.492188 -1.582031 9.804688 -2.03125 9.984375 -2.625 C 10.046875 -2.8125 10.144531 -2.90625 10.28125 -2.90625 C 10.425781 -2.90625 10.523438 -2.867188 10.578125 -2.796875 C 10.628906 -2.734375 10.648438 -2.660156 10.640625 -2.578125 L 10.34375 -0.71875 C 10.320312 -0.507812 10.234375 -0.335938 10.078125 -0.203125 C 9.929688 -0.0664062 9.753906 0 9.546875 0 Z M 9.546875 0 "/></g></g></g><g clip-path="url(#e50fafe632)"><g fill="#ffffff" fill-opacity="1"><g transform="translate(104.235422, 16.898129)"><g><path d="M 8.078125 -7.453125 C 8.640625 -7.910156 8.921875 -8.515625 8.921875 -9.265625 C 8.921875 -10.023438 8.644531 -10.628906 8.09375 -11.078125 C 7.539062 -11.523438 6.847656 -11.75 6.015625 -11.75 L 4.328125 -11.75 C 3.847656 -11.75 3.609375 -11.507812 3.609375 -11.03125 L 3.609375 -7 C 3.609375 -6.84375 3.671875 -6.765625 3.796875 -6.765625 L 6.015625 -6.765625 C 6.835938 -6.765625 7.523438 -6.992188 8.078125 -7.453125 Z M 6.625 -12.5625 C 7.769531 -12.5625 8.707031 -12.265625 9.4375 -11.671875 C 10.175781 -11.085938 10.546875 -10.3125 10.546875 -9.34375 C 10.546875 -8.382812 10.179688 -7.59375 9.453125 -6.96875 C 8.734375 -6.34375 7.929688 -6.015625 7.046875 -5.984375 L 7.03125 -5.953125 C 7.28125 -5.867188 7.476562 -5.710938 7.625 -5.484375 L 10.328125 -1.1875 C 10.578125 -0.769531 10.972656 -0.523438 11.515625 -0.453125 L 11.84375 -0.40625 C 12 -0.382812 12.078125 -0.304688 12.078125 -0.171875 C 12.078125 -0.00390625 11.984375 0.078125 11.796875 0.078125 C 10.648438 0.0234375 9.9375 0 9.65625 0 C 9.375 0 9.15625 -0.117188 9 -0.359375 L 5.96875 -5.40625 C 5.726562 -5.769531 5.46875 -5.953125 5.1875 -5.953125 C 5.1875 -5.953125 5.179688 -5.953125 5.171875 -5.953125 L 3.875 -5.953125 C 3.695312 -5.953125 3.609375 -5.878906 3.609375 -5.734375 L 3.609375 -1.1875 C 3.609375 -0.96875 3.6875 -0.789062 3.84375 -0.65625 C 4 -0.53125 4.1875 -0.460938 4.40625 -0.453125 L 5.171875 -0.40625 C 5.296875 -0.40625 5.359375 -0.320312 5.359375 -0.15625 C 5.359375 0 5.273438 0.078125 5.109375 0.078125 L 2.875 0 L 0.875 0.078125 C 0.71875 0.078125 0.628906 0.00390625 0.609375 -0.140625 C 0.609375 -0.304688 0.679688 -0.394531 0.828125 -0.40625 L 1.34375 -0.453125 C 1.832031 -0.484375 2.078125 -0.726562 2.078125 -1.1875 L 2.078125 -11.375 C 2.078125 -11.800781 1.800781 -12.039062 1.25 -12.09375 L 0.734375 -12.140625 C 0.597656 -12.160156 0.53125 -12.238281 0.53125 -12.375 C 0.53125 -12.539062 0.617188 -12.625 0.796875 -12.625 L 3.265625 -12.5625 Z M 6.625 -12.5625 "/></g></g></g></g></g></g></svg>