<svg xmlns="http://www.w3.org/2000/svg" xmlns:xlink="http://www.w3.org/1999/xlink" width="40" zoomAndPan="magnify" viewBox="0 0 30 30.000001" height="40" preserveAspectRatio="xMidYMid meet" version="1.0"><defs><clipPath id="02df326b1e"><path d="M 0.484375 0 L 29.515625 0 L 29.515625 29.03125 L 0.484375 29.03125 Z M 0.484375 0 " clip-rule="nonzero"/></clipPath><clipPath id="9a157038e6"><path d="M 9.570312 8.875 L 20.457031 8.875 L 20.457031 20.488281 L 9.570312 20.488281 Z M 9.570312 8.875 " clip-rule="nonzero"/></clipPath><clipPath id="4d185072f6"><path d="M 21.183594 20.488281 L 29.515625 20.488281 L 29.515625 29.03125 L 21.183594 29.03125 Z M 21.183594 20.488281 " clip-rule="nonzero"/></clipPath><clipPath id="60a2aa41f9"><path d="M 22.632812 20.488281 L 28.441406 20.488281 C 29.242188 20.488281 29.890625 21.136719 29.890625 21.9375 L 29.890625 27.746094 C 29.890625 28.546875 29.242188 29.195312 28.441406 29.195312 L 22.632812 29.195312 C 21.832031 29.195312 21.183594 28.546875 21.183594 27.746094 L 21.183594 21.9375 C 21.183594 21.136719 21.832031 20.488281 22.632812 20.488281 Z M 22.632812 20.488281 " clip-rule="nonzero"/></clipPath></defs><g clip-path="url(#02df326b1e)"><path fill="#ffffff" d="M 0.484375 0 L 29.515625 0 L 29.515625 29.03125 L 0.484375 29.03125 Z M 0.484375 0 " fill-opacity="1" fill-rule="nonzero"/><path fill="#000000" d="M 0.484375 0 L 29.515625 0 L 29.515625 29.03125 L 0.484375 29.03125 Z M 0.484375 0 " fill-opacity="1" fill-rule="nonzero"/></g><g clip-path="url(#9a157038e6)"><path fill="#ffffff" d="M 15.53125 18.628906 C 15.421875 18.636719 15.3125 18.640625 15.203125 18.640625 C 13.578125 18.640625 12.171875 17.703125 11.496094 16.34375 C 11.496094 16.34375 12.867188 13.171875 16.011719 11.796875 C 14.394531 12.207031 13.304688 12.777344 12.570312 13.34375 L 12.566406 13.347656 C 12.386719 13.488281 12.226562 13.628906 12.085938 13.769531 C 11.773438 14.050781 11.371094 14.429688 11.078125 14.773438 C 11.074219 14.6875 11.070312 14.597656 11.070312 14.511719 C 11.070312 12.226562 12.921875 10.378906 15.203125 10.378906 C 16.3125 10.378906 17.320312 10.816406 18.066406 11.53125 C 16.691406 14.933594 12.777344 16.09375 12.777344 16.09375 C 16.527344 15.753906 18.210938 14.136719 18.96875 12.808594 C 19.539062 11.804688 19.582031 10.964844 19.582031 10.964844 C 18.546875 9.691406 16.96875 8.878906 15.203125 8.878906 C 12.089844 8.878906 9.570312 11.398438 9.570312 14.511719 C 9.570312 17.621094 12.089844 20.140625 15.203125 20.140625 C 16.109375 20.140625 16.96875 19.925781 17.730469 19.546875 C 18.246094 19.285156 18.71875 18.945312 19.128906 18.546875 C 20.421875 17.175781 19.929688 15.621094 19.929688 15.621094 C 18.449219 18.683594 15.53125 18.628906 15.53125 18.628906 " fill-opacity="1" fill-rule="evenodd"/></g><g clip-path="url(#4d185072f6)"><g clip-path="url(#60a2aa41f9)"><path fill="#000000" d="M 21.183594 20.488281 L 29.890625 20.488281 L 29.890625 29.195312 L 21.183594 29.195312 Z M 21.183594 20.488281 " fill-opacity="1" fill-rule="nonzero"/></g></g></svg>